<svg xmlns="http://www.w3.org/2000/svg" width="41" height="41" viewBox="0 0 41 41">
    <g fill="#DF5A30" fill-rule="nonzero">
        <path d="M40.146 39H.854C.383 39 0 39.448 0 40s.383 1 .854 1h39.292c.471 0 .854-.448.854-1s-.383-1-.854-1z"/>
        <path d="M8.125 29h-5.25a.867.867 0 0 0-.875.857v10.286c0 .473.392.857.875.857h5.25A.867.867 0 0 0 9 40.143V29.857A.867.867 0 0 0 8.125 29zM7.25 39.286h-3.5v-8.572h3.5v8.572zM18.125 20h-5.25c-.483 0-.875.373-.875.833v18.334c0 .46.392.833.875.833h5.25c.483 0 .875-.373.875-.833V20.833c0-.46-.392-.833-.875-.833zm-.875 18.333h-3.5V21.667h3.5v16.666zM28.125 24h-5.25a.863.863 0 0 0-.875.85v15.3c0 .47.392.85.875.85h5.25c.483 0 .875-.38.875-.85v-15.3c0-.47-.392-.85-.875-.85zm-.875 15.3h-3.5V25.7h3.5v13.6zM38.125 14h-5.25c-.483 0-.875.378-.875.844v25.312c0 .466.392.844.875.844h5.25c.483 0 .875-.378.875-.844V14.844c0-.466-.392-.844-.875-.844zm-.875 25.312h-3.5V15.687h3.5v23.625zM5.5 15C3.57 15 2 16.57 2 18.5S3.57 22 5.5 22 9 20.43 9 18.5 7.43 15 5.5 15zm0 5.25c-.966 0-1.75-.786-1.75-1.75s.784-1.75 1.75-1.75 1.75.786 1.75 1.75-.784 1.75-1.75 1.75zM15.5 7C13.57 7 12 8.57 12 10.5s1.57 3.5 3.5 3.5 3.5-1.57 3.5-3.5S17.43 7 15.5 7zm0 5.25c-.966 0-1.75-.786-1.75-1.75s.784-1.75 1.75-1.75 1.75.786 1.75 1.75-.784 1.75-1.75 1.75zM25.5 10c-1.93 0-3.5 1.57-3.5 3.5s1.57 3.5 3.5 3.5 3.5-1.57 3.5-3.5-1.57-3.5-3.5-3.5zm0 5.25c-.966 0-1.75-.786-1.75-1.75s.784-1.75 1.75-1.75 1.75.786 1.75 1.75-.784 1.75-1.75 1.75zM35.5 0C33.57 0 32 1.57 32 3.5S33.57 7 35.5 7 39 5.43 39 3.5 37.43 0 35.5 0zm0 5.25c-.966 0-1.75-.786-1.75-1.75s.784-1.75 1.75-1.75 1.75.786 1.75 1.75-.784 1.75-1.75 1.75z"/>
        <path d="M34.76 4.24a.82.82 0 0 0-1.159 0L27.24 10.6a.82.82 0 0 0 1.159 1.16l6.361-6.362a.82.82 0 0 0 0-1.16zM23.396 11.465l-5.338-1.434c-.447-.122-.901.123-1.026.539-.126.416.13.848.57.967l5.339 1.433c.076.02.153.03.227.03a.826.826 0 0 0 .8-.568c.126-.415-.13-.848-.572-.967zM13.816 11.33a.816.816 0 0 0-1.177-.14l-6.323 5.253a.898.898 0 0 0-.132 1.228c.166.217.41.329.655.329a.825.825 0 0 0 .522-.189l6.323-5.253a.898.898 0 0 0 .132-1.229z"/>
    </g>
</svg>
