<svg xmlns="http://www.w3.org/2000/svg" width="36" height="36" viewBox="0 0 36 36">
    <g fill="#DF5A30" fill-rule="nonzero">
        <path d="M11.959 26.045c.82-.875 1.348-2.04 1.348-3.265 0-2.623-2.17-4.78-4.807-4.78-2.638 0-4.807 2.157-4.807 4.78 0 1.283.528 2.449 1.348 3.265C1.7 27.327 0 29.6 0 32.749c0 1.282.293 2.157.938 2.681.996.817 2.462.583 4.22.35.997-.175 2.17-.35 3.342-.35 1.172 0 2.345.175 3.341.35.821.117 3.107.583 4.221-.35.645-.524.938-1.399.938-2.681 0-3.206-1.7-5.422-5.041-6.704zm-7.152-3.323c0-1.982 1.641-3.614 3.634-3.614 1.993 0 3.635 1.632 3.635 3.614s-1.642 3.614-3.635 3.614c-1.993 0-3.634-1.632-3.634-3.614zM15.3 34.498c-.586.466-1.817.291-3.283.058-1.055-.175-2.227-.35-3.517-.35s-2.462.175-3.517.35c-1.466.233-2.755.408-3.283-.058-.352-.292-.528-.875-.528-1.808 0-2.856 1.642-4.78 4.925-5.83a4.772 4.772 0 0 0 2.403.642c.88 0 1.7-.233 2.404-.641 3.341 1.107 4.924 2.973 4.924 5.83 0 .932-.176 1.573-.528 1.807zM30.959 26.045c.82-.875 1.348-2.04 1.348-3.265 0-2.623-2.17-4.78-4.807-4.78-2.638 0-4.807 2.157-4.807 4.78 0 1.283.528 2.449 1.348 3.265C20.7 27.327 19 29.6 19 32.749c0 1.282.293 2.157.938 2.681.996.817 2.462.583 4.22.35.997-.175 2.17-.35 3.342-.35 1.172 0 2.345.175 3.341.35.821.117 3.107.583 4.221-.35.645-.524.938-1.399.938-2.681 0-3.206-1.7-5.422-5.041-6.704zm-7.094-3.323c0-1.982 1.642-3.614 3.635-3.614 1.993 0 3.634 1.632 3.634 3.614s-1.64 3.614-3.634 3.614a3.605 3.605 0 0 1-3.635-3.614zM34.3 34.498c-.586.466-1.817.291-3.283.058-1.055-.175-2.227-.35-3.517-.35s-2.462.175-3.517.35c-1.466.233-2.756.408-3.283-.058-.352-.292-.528-.875-.528-1.808 0-2.856 1.642-4.78 4.925-5.83a4.772 4.772 0 0 0 2.403.642c.88 0 1.7-.233 2.403-.641 3.342 1.107 4.925 2.973 4.925 5.83 0 .932-.176 1.573-.528 1.807zM28 9.347c0-2.57-1.724-4.79-4.162-5.55V1.753C23.838.759 23.065 0 22.054 0H7.784C6.773 0 6 .76 6 1.753V9.93c0 .993.773 1.753 1.784 1.753v3.155l2.973-2.921a5.962 5.962 0 0 0 5.351 3.271s6.184.058 6.54-.058L26.039 17l-.892-2.687A5.74 5.74 0 0 0 28 9.347zm-17.481 1.168l-1.546 1.52v-1.52h-1.19c-.356 0-.594-.233-.594-.584V1.753c0-.35.238-.585.595-.585h14.27c.357 0 .595.234.595.585V9.93c0 .35-.238.584-.595.584H10.52zm13.14 3.214l.238.759-1.07-.584s-.238.058-.832.058h-5.946a4.788 4.788 0 0 1-4.103-2.337h10.049c1.01.059 1.783-.7 1.783-1.694V5.024c1.784.701 2.973 2.395 2.973 4.323 0 3.213-3.092 4.382-3.092 4.382z"/>
        <path d="M10 5h12v1H10z"/>
    </g>
</svg>
