<svg xmlns="http://www.w3.org/2000/svg" width="44" height="40" viewBox="0 0 44 40">
    <g fill="#DF5A30" fill-rule="nonzero">
        <path d="M7.733 17h9.534c.405 0 .733-.224.733-.5s-.328-.5-.733-.5H7.733c-.405 0-.733.224-.733.5s.328.5.733.5zM27.25 20H7.75c-.415 0-.75.224-.75.5s.335.5.75.5h19.5c.415 0 .75-.224.75-.5s-.335-.5-.75-.5zM27.25 25H7.75c-.415 0-.75.224-.75.5s.335.5.75.5h19.5c.415 0 .75-.224.75-.5s-.335-.5-.75-.5z"/>
        <path d="M39.653.05L14.615 0c-2.398 0-4.348 1.932-4.348 4.307V8.03l-5.918.012C1.95 8.041 0 9.973 0 12.348v15.356c0 2.375 1.95 4.306 4.349 4.306H8.8v7.264a.727.727 0 0 0 .733.726.738.738 0 0 0 .543-.238l7.116-7.753 12.193-.05c2.398 0 4.348-1.932 4.348-4.306v-.082l3.858 4.203a.738.738 0 0 0 .806.188.727.727 0 0 0 .47-.677V24.02h.784c2.398 0 4.349-1.932 4.349-4.306V4.358C44 1.984 42.05.052 39.653.051zm-7.386 27.602c0 1.574-1.293 2.854-2.885 2.854l-12.518.05a.737.737 0 0 0-.54.238l-6.057 6.6v-6.11a.73.73 0 0 0-.734-.727H4.35c-1.59 0-2.882-1.28-2.882-2.854V12.348c0-1.574 1.293-2.855 2.883-2.855L11 9.48h.001l18.384-.037c1.589 0 2.882 1.28 2.882 2.854v15.356zm10.266-7.939c0 1.574-1.293 2.854-2.882 2.854h-1.518a.73.73 0 0 0-.733.727v6.11l-3.667-3.994V12.297c0-2.375-1.95-4.307-4.35-4.307l-17.65.035V4.306c0-1.574 1.293-2.854 2.88-2.854l25.038.05h.001c1.59 0 2.882 1.281 2.882 2.855v15.356z"/>
    </g>
</svg>
