<svg xmlns="http://www.w3.org/2000/svg" width="42" height="28" viewBox="0 0 42 28">
    <g fill="#DF5A30" fill-rule="nonzero">
        <path d="M41.977 19.364c-.104-2.442-.523-5.15-1.15-7.7-.628-2.442-1.413-4.725-2.355-6.477C34.811-1.345 30.835-.336 26.074.939c-1.517.371-3.138.796-4.812.956h-.524c-1.674-.16-3.295-.585-4.812-.956-4.76-1.222-8.737-2.284-12.398 4.3-.942 1.753-1.78 4.036-2.355 6.479-.627 2.549-1.046 5.257-1.15 7.7-.105 2.707.157 4.672.732 6.053.575 1.274 1.412 2.07 2.511 2.39.994.265 2.145.158 3.348-.373 2.04-.85 4.394-2.655 6.696-4.832 1.622-1.593 4.656-2.39 7.69-2.39 3.034 0 6.068.797 7.69 2.39 2.302 2.177 4.656 3.983 6.696 4.832 1.203.478 2.354.638 3.348.372 1.046-.318 1.936-1.062 2.511-2.442.575-1.328.837-3.293.732-6.054zm-2.51 5.31c-.314.744-.733 1.168-1.256 1.328-.576.159-1.308.053-2.145-.266-1.83-.743-3.976-2.39-6.068-4.407-1.988-2.018-5.493-3.027-8.998-3.027-3.505 0-7.01 1.01-9.05 2.92-2.145 2.018-4.29 3.718-6.068 4.408-.837.319-1.57.478-2.145.265-.523-.159-.942-.584-1.256-1.327-.418-1.009-.627-2.655-.523-5.098.105-2.283.471-4.885 1.099-7.327.575-2.284 1.308-4.408 2.197-6 2.877-5.257 6.225-4.408 10.2-3.346 1.623.425 3.297.85 5.127 1.01H21.366c1.883-.16 3.557-.585 5.18-1.01 3.975-1.009 7.323-1.911 10.2 3.345.89 1.593 1.622 3.664 2.197 6 .576 2.443.994 4.992 1.099 7.328.104 2.443-.105 4.09-.576 5.204z"/>
        <path d="M15.161 8.468c-.493-.445-1.085-.792-1.775-.842a2.825 2.825 0 0 0-.79-1.734l-.049-.05A2.788 2.788 0 0 0 10.525 5c-.79 0-1.53.347-2.023.842-.444.446-.789 1.09-.838 1.784-.69.05-1.283.347-1.776.793l-.05.05A2.813 2.813 0 0 0 5 10.5c0 .793.345 1.536.839 2.032.493.495 1.085.792 1.825.842.049.694.345 1.338.838 1.784a2.788 2.788 0 0 0 2.023.842c.789 0 1.529-.347 2.022-.842.444-.496.79-1.09.839-1.784.69-.05 1.331-.347 1.775-.842A2.813 2.813 0 0 0 16 10.5c0-.793-.345-1.536-.839-2.032zm-1.233 2.775a1.002 1.002 0 0 1-.74.298h-.69a.939.939 0 0 0-.937.941v.644a1.01 1.01 0 0 1-1.036 1.04 1.01 1.01 0 0 1-1.036-1.04v-.694a.939.939 0 0 0-.937-.941H7.86c-.296 0-.543-.1-.74-.297a1.006 1.006 0 0 1-.296-.694c0-.297.099-.545.296-.743l.05-.05c.197-.148.443-.248.69-.248h.69a.939.939 0 0 0 .938-.941v-.694a1.01 1.01 0 0 1 1.036-1.04c.296 0 .542.099.74.297l.049.05c.148.198.247.446.247.693v.694c0 .496.394.941.937.941h.69c.296 0 .543.1.74.298.198.198.296.446.296.743s-.098.545-.296.743z"/>
        <circle cx="30" cy="7" r="2"/>
        <circle cx="30" cy="15" r="2"/>
        <circle cx="27" cy="12" r="2"/>
        <circle cx="34" cy="12" r="2"/>
    </g>
</svg>
