<svg xmlns="http://www.w3.org/2000/svg" width="41" height="55" viewBox="0 0 41 55">
    <g fill="#DF5A30" fill-rule="nonzero">
        <path d="M17 34c9.374 0 17-7.626 17-17 0-9.374-7.626-17-17-17C7.626 0 0 7.626 0 17c0 9.374 7.626 17 17 17zm0-31.733c8.124 0 14.733 6.61 14.733 14.733 0 8.124-6.61 14.733-14.733 14.733-8.124 0-14.733-6.61-14.733-14.733C2.267 8.876 8.877 2.267 17 2.267z"/>
        <path d="M17.062 21.5h-3.937a1.124 1.124 0 1 0 0 2.25h2.25v1.125a1.124 1.124 0 1 0 2.25 0v-1.182c1.903-.276 3.375-1.902 3.375-3.88a3.942 3.942 0 0 0-3.937-3.938h-1.125a1.69 1.69 0 0 1-1.688-1.687c0-.93.757-1.688 1.688-1.688h3.937a1.124 1.124 0 1 0 0-2.25h-2.25V9.125a1.124 1.124 0 1 0-2.25 0v1.182c-1.903.276-3.375 1.902-3.375 3.88a3.942 3.942 0 0 0 3.937 3.938h1.125c.931 0 1.688.757 1.688 1.687a1.69 1.69 0 0 1-1.688 1.688zM39.861 32H30.75c-.63 0-1.139.514-1.139 1.15 0 .636.51 1.15 1.139 1.15h6.362L22.778 48.774l-8.306-8.387a1.13 1.13 0 0 0-1.61 0L.333 53.037a1.157 1.157 0 0 0 0 1.626 1.13 1.13 0 0 0 1.61 0l11.723-11.837 8.306 8.387a1.13 1.13 0 0 0 1.61 0l15.14-15.287v6.424c0 .636.509 1.15 1.138 1.15.63 0 1.139-.514 1.139-1.15v-9.2c0-.636-.51-1.15-1.139-1.15z"/>
    </g>
</svg>
