<svg xmlns="http://www.w3.org/2000/svg" width="40" height="43" viewBox="0 0 40 43">
    <g fill="#DF5A30" fill-rule="nonzero">
        <path d="M20 1.967c-8.135 0-14.754 6.634-14.754 14.788 0 5.762 3.305 10.764 8.115 13.203v8.809a3.856 3.856 0 0 0 3.847 3.856h5.584a3.856 3.856 0 0 0 3.847-3.856v-8.809c4.81-2.439 8.115-7.441 8.115-13.203 0-8.154-6.619-14.788-14.754-14.788zm1.147 27.015a12.333 12.333 0 0 1-2.295 0c.085-1.715.044-4.993-1.17-7.875h4.635c-1.213 2.882-1.255 6.16-1.17 7.875zm2.991 7.226h-8.276V30.95c1.313.385 2.702.593 4.138.593s2.825-.208 4.138-.593v5.258zm0 2.559a1.35 1.35 0 0 1-1.346 1.35h-5.584a1.35 1.35 0 0 1-1.346-1.35v-.053h8.276v.053zm-.504-10.282c-.058-1.932.103-5.505 1.81-7.903.273-.382.309-.885.094-1.302a1.25 1.25 0 0 0-1.111-.68h-8.854a1.255 1.255 0 0 0-1.018 1.982c1.708 2.398 1.869 5.971 1.81 7.903-4.987-1.556-8.618-6.226-8.618-11.73C7.747 9.983 13.243 4.474 20 4.474c6.756 0 12.253 5.51 12.253 12.281 0 5.504-3.632 10.174-8.619 11.73zM3.712 5.526a1.279 1.279 0 0 0 1.814 0c.5-.501.5-1.313 0-1.814L2.189.376A1.283 1.283 0 1 0 .376 2.189l3.336 3.337zM35.381 5.902c.328 0 .657-.126.907-.376l3.336-3.336A1.282 1.282 0 1 0 37.81.376l-3.336 3.336a1.282 1.282 0 0 0 .907 2.19zM36.288 27.917a1.282 1.282 0 1 0-1.814 1.813l3.336 3.337a1.278 1.278 0 0 0 1.814 0c.501-.5.501-1.313 0-1.814l-3.336-3.336zM3.712 27.917L.376 31.253a1.283 1.283 0 0 0 1.813 1.814l3.337-3.337a1.283 1.283 0 0 0-1.814-1.813z"/>
    </g>
</svg>
