<svg xmlns="http://www.w3.org/2000/svg" width="75" height="42" viewBox="0 0 75 42">
    <g fill="none" fill-rule="evenodd">
        <g fill="#DF5A30" fill-rule="nonzero">
            <path d="M65.59 26.244a.708.708 0 0 1-.543-.076l-10.4-5.995a.82.82 0 0 1-.318-1.063.704.704 0 0 1 .999-.303l10.4 5.995a.82.82 0 0 1 .318 1.063.716.716 0 0 1-.456.38zM38.203 33.583c-.19.05-.4.02-.585-.1a.82.82 0 0 1-.255-1.08l6.012-10.394a.708.708 0 0 1 1.017-.236.82.82 0 0 1 .256 1.08l-6.012 10.392a.708.708 0 0 1-.433.338z"/>
            <path d="M71.87 31.57l-36.458 9.77a3.632 3.632 0 0 1-4.443-2.567l-6.404-23.9a3.632 3.632 0 0 1 2.565-4.443L63.588.66a3.632 3.632 0 0 1 4.443 2.567l6.404 23.9a3.632 3.632 0 0 1-2.565 4.443zM27.505 11.832a2.18 2.18 0 0 0-1.539 2.666l6.404 23.9a2.18 2.18 0 0 0 2.666 1.54l36.459-9.77a2.18 2.18 0 0 0 1.539-2.666l-6.404-23.9a2.18 2.18 0 0 0-2.666-1.54l-36.459 9.77z"/>
            <path d="M50.547 24.86c-.93.25-1.947.181-2.825-.265L25.429 13.274a.763.763 0 0 1-.341-.999.714.714 0 0 1 .97-.334l22.292 11.32c1.11.563 2.62.158 3.298-.884L65.28 1.46a.71.71 0 0 1 1.007-.195.763.763 0 0 1 .205 1.035l-13.63 20.918c-.54.827-1.383 1.394-2.314 1.644z"/>
        </g>
        <g stroke="#DF5A30" stroke-linecap="round" stroke-linejoin="round">
            <path d="M22.073 20.66L7.584 24.542M15.122 25.628L.633 29.51M24.143 28.387L9.655 32.27"/>
        </g>
    </g>
</svg>
