<svg xmlns="http://www.w3.org/2000/svg" width="45" height="32" viewBox="0 0 45 32">
    <g fill="#DF5A30" fill-rule="nonzero">
        <path d="M36.685 25.23a.708.708 0 0 1-.505-.214l-8.494-8.482a.82.82 0 0 1-.033-1.11.704.704 0 0 1 1.044-.034l8.494 8.482a.82.82 0 0 1 .033 1.11.716.716 0 0 1-.54.248zM8.332 25.23a.718.718 0 0 1-.54-.248.82.82 0 0 1 .033-1.11l8.497-8.482a.708.708 0 0 1 1.044.034.82.82 0 0 1-.033 1.11l-8.497 8.482a.708.708 0 0 1-.504.214z"/>
        <path d="M41.372 32H3.628C1.628 32 0 30.373 0 28.371V3.63A3.632 3.632 0 0 1 3.628 0h37.744C43.372 0 45 1.627 45 3.629V28.37A3.632 3.632 0 0 1 41.372 32zM3.628 1.451A2.18 2.18 0 0 0 1.45 3.63V28.37c0 1.2.977 2.178 2.177 2.178h37.744a2.18 2.18 0 0 0 2.177-2.178V3.63a2.18 2.18 0 0 0-2.177-2.178H3.628z"/>
        <path d="M22.512 20c-.963 0-1.927-.33-2.66-.987L1.249 2.307a.763.763 0 0 1-.071-1.053.714.714 0 0 1 1.023-.072l18.603 16.705c.926.83 2.49.83 3.415 0l18.58-16.678a.71.71 0 0 1 1.023.072.763.763 0 0 1-.07 1.053L25.172 19.01c-.734.66-1.697.989-2.66.989z"/>
    </g>
</svg>
