<svg xmlns="http://www.w3.org/2000/svg" width="26" height="41" viewBox="0 0 26 41">
    <g fill="#566DA7" fill-rule="evenodd">
        <path fill-rule="nonzero" d="M25.133 30.75h-23.4V8.542h23.4A.86.86 0 0 0 26 7.687V5.98C26 2.682 23.279 0 19.933 0H6.067C2.72 0 0 2.682 0 5.98v29.04C0 38.319 2.721 41 6.067 41h13.866C23.28 41 26 38.318 26 35.02v-3.416a.86.86 0 0 0-.867-.854zM1.733 5.98c0-2.355 1.943-4.272 4.334-4.272h13.866c2.39 0 4.334 1.917 4.334 4.271v.854H1.733V5.98zm22.534 29.04c0 2.355-1.943 4.272-4.334 4.272H6.067c-2.39 0-4.334-1.917-4.334-4.271v-2.563h22.534v2.563z"/>
        <path d="M24 7h2v24h-2z"/>
        <path fill-rule="nonzero" d="M15 4h-4a1 1 0 0 0 0 2h4a1 1 0 0 0 0-2zM13 38a2 2 0 1 0-.001-4.001A2 2 0 0 0 13 38z"/>
    </g>
</svg>
