<svg xmlns="http://www.w3.org/2000/svg" xmlns:xlink="http://www.w3.org/1999/xlink" width="105" height="105" viewBox="0 0 105 105">
    <defs>
        <linearGradient id="c" x1="-62.371%" x2="140.596%" y1="138.309%" y2="-14.789%">
            <stop offset="0%" stop-color="#0A6D99"/>
            <stop offset="100%" stop-color="#42AEE7"/>
        </linearGradient>
        <ellipse id="b" cx="35.729" cy="35.144" rx="33.199" ry="33.244"/>
        <filter id="a" width="193.4%" height="193.2%" x="-46.7%" y="-43.6%" filterUnits="objectBoundingBox">
            <feOffset dy="2" in="SourceAlpha" result="shadowOffsetOuter1"/>
            <feGaussianBlur in="shadowOffsetOuter1" result="shadowBlurOuter1" stdDeviation="10"/>
            <feColorMatrix in="shadowBlurOuter1" values="0 0 0 0 0 0 0 0 0 0 0 0 0 0 0 0 0 0 0.0625 0"/>
        </filter>
    </defs>
    <g fill="none" fill-rule="nonzero" opacity=".5">
        <path fill="#2379C3" d="M70.584 83.998c-16.867 9.738-38.646 3.887-48.398-13.003-9.752-16.89-3.93-38.678 12.938-48.416 16.868-9.738 38.647-3.887 48.398 13.003 9.752 16.89 3.93 38.677-12.938 48.416z"/>
        <g transform="rotate(-30 73.856 12.778)">
            <use fill="#000" filter="url(#a)" xlink:href="#b"/>
            <use fill="url(#c)" fill-rule="evenodd" xlink:href="#b"/>
        </g>
        <path fill="#2379C3" d="M28.106 69.563c-9.14-15.832-3.718-36.121 12.092-45.249 7.038-4.063 14.938-5.22 22.354-3.918-8.8-3.227-18.953-2.676-27.725 2.389-15.81 9.128-21.232 29.417-12.092 45.249 5.071 8.783 13.59 14.351 22.878 16.07-7.173-2.531-13.438-7.494-17.507-14.541z"/>
        <path fill="#2285BE" d="M69.635 82.353C52.767 92.09 30.988 86.24 21.236 69.35c-9.751-16.89-3.93-38.678 12.938-48.416 16.868-9.739 38.647-3.887 48.399 13.003 9.751 16.89 3.929 38.677-12.938 48.416zM36.42 24.823c-14.823 8.559-19.81 27.543-11.3 42.284C33.69 81.95 52.669 86.962 67.39 78.463c14.72-8.5 19.81-27.543 11.299-42.283-8.51-14.74-27.445-19.914-42.268-11.356z"/>
        <path fill="#2478C3" d="M58.872 40.736l-1.76 1.016c-1.213-1.864-2.99-3.268-5.05-3.969l3.829-2.21c.828-.478 1.098-1.444.63-2.254-.467-.81-1.439-1.059-2.267-.58l-10.347 5.973-5.898 3.405-3.208 1.852c-.827.478-1.097 1.444-.63 2.254.468.81 1.44 1.059 2.267.581l3.208-1.852 5.898-3.405a6.46 6.46 0 0 1 8.568 1.937L39.42 51.967c-.828.478-1.098 1.444-.63 2.254.467.81 1.439 1.059 2.267.581l14.693-8.483c1.106 2.871-.06 6.11-2.854 7.722l-5.898 3.405c-.517.299-.86.901-.877 1.587-.019.685.377 1.132.98 1.459l18.35 8.843c.544.226 1.075.19 1.592-.11.31-.179.563-.459.711-.68.49-.823.068-1.794-.755-2.263l-15.512-7.513 3.104-1.792c4.45-2.569 6.142-8 4.263-12.45l1.759-1.016c.828-.478 1.098-1.444.63-2.253-.467-.81-1.542-1-2.37-.522z"/>
        <path fill="#F7C011" d="M56.518 34.457l-.469 1.75c.489-.552.66-1.188.47-1.75z"/>
    </g>
</svg>
