<svg xmlns="http://www.w3.org/2000/svg" xmlns:xlink="http://www.w3.org/1999/xlink" width="144" height="144" viewBox="0 0 144 144">
    <defs>
        <linearGradient id="c" x1="-62.371%" x2="140.596%" y1="138.309%" y2="-14.789%">
            <stop offset="0%" stop-color="#0A6D99"/>
            <stop offset="100%" stop-color="#42AEE7"/>
        </linearGradient>
        <circle id="b" cx="56.361" cy="55.363" r="52.371"/>
        <filter id="a" width="159.2%" height="159.2%" x="-29.6%" y="-27.7%" filterUnits="objectBoundingBox">
            <feOffset dy="2" in="SourceAlpha" result="shadowOffsetOuter1"/>
            <feGaussianBlur in="shadowOffsetOuter1" result="shadowBlurOuter1" stdDeviation="10"/>
            <feColorMatrix in="shadowBlurOuter1" values="0 0 0 0 0 0 0 0 0 0 0 0 0 0 0 0 0 0 0.0625 0"/>
        </filter>
    </defs>
    <g fill="none" fill-rule="nonzero">
        <path fill="#2379C3" d="M57.058 126.731c-29.677-7.952-47.452-38.74-39.5-68.416 7.952-29.678 38.74-47.453 68.416-39.5 29.678 7.951 47.453 38.739 39.5 68.416-7.951 29.677-38.739 47.452-68.416 39.5z"/>
        <g transform="rotate(15 10.83 125.266)">
            <use fill="#000" filter="url(#a)" xlink:href="#b"/>
            <use fill="url(#c)" fill-rule="evenodd" xlink:href="#b"/>
        </g>
        <path fill="#2379C3" d="M25.759 63.317C33.212 35.5 61.884 18.947 89.7 26.401c12.382 3.318 22.486 10.834 29.309 20.548-6.22-13.4-18.163-24.102-33.597-28.237-27.817-7.454-56.488 9.1-63.941 36.917-4.136 15.433-.84 31.128 7.607 43.393-5.181-10.813-6.638-23.322-3.32-35.705z"/>
        <path fill="#2285BE" d="M57.833 123.84c-29.678-7.951-47.453-38.739-39.5-68.416 7.951-29.677 38.739-47.452 68.416-39.5 29.677 7.952 47.452 38.74 39.5 68.416-7.952 29.678-38.74 47.453-68.416 39.5zM84.917 22.759c-26.08-6.988-52.81 8.597-59.75 34.497-6.988 26.08 8.597 52.811 34.497 59.751 25.9 6.94 52.81-8.597 59.75-34.497 6.94-25.9-8.417-52.763-34.497-59.75z"/>
        <path fill="#2478C3" d="M92.225 65.5l-3.095-.83c.724-3.428.308-6.971-1.21-10.047l6.736 1.805c1.457.39 2.835-.384 3.216-1.808.381-1.423-.425-2.783-1.881-3.173L77.785 46.57l-10.377-2.78-5.643-1.513c-1.457-.39-2.835.385-3.216 1.808-.382 1.423.425 2.783 1.881 3.173l5.644 1.512 10.377 2.78c5.28 1.415 8.37 6.629 7.4 11.707L57.999 56.33c-1.456-.39-2.834.385-3.216 1.808-.381 1.423.425 2.783 1.882 3.173l25.851 6.927c-1.967 4.43-6.878 6.737-11.793 5.42l-10.377-2.781c-.91-.244-1.964.046-2.748.789-.785.743-.841 1.681-.533 2.717l10.613 30.298c.356.858.988 1.41 1.899 1.653.546.146 1.14.115 1.551.035 1.465-.37 2.076-1.923 1.682-3.363l-8.931-25.653 5.461 1.463c7.829 2.098 15.773-2.065 18.638-9.115l3.095.83c1.456.39 2.834-.385 3.216-1.808.381-1.423-.607-2.832-2.064-3.222z"/>
        <path fill="#F7C011" d="M96.6 55.884l-2.473 1.426c1.16-.07 2.06-.588 2.474-1.426z"/>
    </g>
</svg>
