<svg xmlns="http://www.w3.org/2000/svg" xmlns:xlink="http://www.w3.org/1999/xlink" width="86" height="86" viewBox="0 0 86 86">
    <defs>
        <linearGradient id="c" x1="-62.371%" x2="140.596%" y1="138.309%" y2="-14.789%">
            <stop offset="0%" stop-color="#0A6D99"/>
            <stop offset="100%" stop-color="#42AEE7"/>
        </linearGradient>
        <ellipse id="b" cx="25.02" cy="24.61" rx="23.249" ry="23.28"/>
        <filter id="a" width="233.3%" height="233.2%" x="-66.7%" y="-62.3%" filterUnits="objectBoundingBox">
            <feOffset dy="2" in="SourceAlpha" result="shadowOffsetOuter1"/>
            <feGaussianBlur in="shadowOffsetOuter1" result="shadowBlurOuter1" stdDeviation="10"/>
            <feColorMatrix in="shadowBlurOuter1" values="0 0 0 0 0 0 0 0 0 0 0 0 0 0 0 0 0 0 0.0625 0"/>
        </filter>
    </defs>
    <g fill="none" fill-rule="nonzero" opacity=".2">
        <path fill="#2379C3" d="M30.491 64.082c-11.812-6.82-15.889-22.076-9.06-33.904 6.829-11.828 22.08-15.925 33.892-9.106 11.812 6.82 15.889 22.077 9.06 33.904-6.829 11.828-22.08 15.926-33.892 9.106z"/>
        <g transform="rotate(30 3.222 68.16)">
            <use fill="#000" filter="url(#a)" xlink:href="#b"/>
            <use fill="url(#c)" fill-rule="evenodd" xlink:href="#b"/>
        </g>
        <path fill="#2379C3" d="M24.372 33.267c6.4-11.087 20.604-14.903 31.675-8.51 4.929 2.845 8.396 7.231 10.203 12.184a22.953 22.953 0 0 0-11.156-15.977c-11.071-6.392-25.274-2.576-31.675 8.51-3.551 6.151-3.945 13.267-1.736 19.502a22.864 22.864 0 0 1 2.689-15.71z"/>
        <path fill="#2285BE" d="M31.156 62.93c-11.812-6.82-15.889-22.076-9.06-33.904 6.829-11.828 22.08-15.926 33.892-9.106 11.812 6.82 15.889 22.077 9.06 33.904-6.828 11.828-22.08 15.926-33.892 9.106zm23.26-40.286c-10.38-5.993-23.64-2.37-29.6 7.952-6 10.395-2.396 23.659 7.913 29.61 10.308 5.952 23.64 2.37 29.599-7.952 5.96-10.323 2.468-23.617-7.913-29.61z"/>
        <path fill="#2478C3" d="M52.626 41.832l-1.231-.712a6.888 6.888 0 0 0 .638-4.452l2.68 1.548c.58.335 1.26.16 1.588-.407.328-.567.139-1.243-.441-1.578l-7.246-4.184-4.13-2.384-2.246-1.297c-.58-.335-1.26-.16-1.588.407-.327.567-.138 1.243.442 1.578l2.246 1.297 4.13 2.385a4.524 4.524 0 0 1 1.825 5.874l-10.289-5.94c-.58-.335-1.26-.16-1.587.407-.328.567-.139 1.243.441 1.578l10.29 5.94c-1.355 1.676-3.727 2.103-5.683.973l-4.13-2.384c-.363-.21-.848-.206-1.27.023-.422.23-.554.625-.541 1.105l1.062 14.226c.053.409.261.718.624.927.217.125.475.18.661.193.671.01 1.112-.587 1.109-1.25l-.876-12.039 2.174 1.255c3.116 1.8 7.002.924 9.043-1.774l1.232.712c.58.334 1.26.16 1.587-.407.328-.567.066-1.286-.514-1.62z"/>
        <path fill="#F7C011" d="M55.61 38.206l-1.225.328c.506.103.951-.016 1.226-.328z"/>
    </g>
</svg>
