<svg xmlns="http://www.w3.org/2000/svg" width="29" height="30" viewBox="0 0 29 30">
    <g fill="#DF5A30" fill-rule="nonzero">
        <path d="M7 14c1.654 0 3-1.346 3-3S8.654 8 7 8s-3 1.346-3 3 1.346 3 3 3zm0-4.923c1.06 0 1.923.863 1.923 1.923S8.06 12.923 7 12.923A1.925 1.925 0 0 1 5.077 11c0-1.06.863-1.924 1.923-1.924z"/>
        <path d="M0 0v30h29V0H0zm1.16 1.154h26.68v15.42l-5.988-5.46a.582.582 0 0 0-.82.036l-5.68 6.188-2.752-2.736a.583.583 0 0 0-.793-.025l-9.706 8.5H1.16V1.154zm26.68 27.692H1.16v-4.615h26.68v4.615zm-23.984-5.77l8.308-7.275 5.976 5.943a.582.582 0 0 0 .82 0 .574.574 0 0 0 0-.816l-2.788-2.773 5.325-5.8 6.343 5.783v4.939H3.856z"/>
    </g>
</svg>
