<svg xmlns="http://www.w3.org/2000/svg" width="34" height="34" viewBox="0 0 34 34">
    <g fill="#DF5A30" fill-rule="nonzero">
        <path d="M17 0C7.627 0 0 7.627 0 17c0 9.373 7.627 17 17 17 9.373 0 17-7.627 17-17 0-9.373-7.627-17-17-17zm0 31.875C8.8 31.875 2.125 25.203 2.125 17S8.8 2.125 17 2.125 31.875 8.797 31.875 17 25.2 31.875 17 31.875z"/>
        <path d="M22.917 12.222h-1.194a5.147 5.147 0 0 0-1.001-2.11h2.195c.598 0 1.083-.474 1.083-1.056C24 8.473 23.515 8 22.917 8H12.084C11.486 8 11 8.473 11 9.056c0 .582.485 1.055 1.083 1.055h4.333a3.24 3.24 0 0 1 3.05 2.111h-7.383c-.598 0-1.083.473-1.083 1.056 0 .582.485 1.055 1.083 1.055h7.384a3.24 3.24 0 0 1-3.051 2.111h-4.333c-.141 0-.282.028-.414.08a1.077 1.077 0 0 0-.587.573c-.11.257-.11.549 0 .806.054.131.134.247.236.344l8.664 8.443a1.103 1.103 0 0 0 1.534.002 1.037 1.037 0 0 0 0-1.493L14.7 18.556h1.718c2.617 0 4.803-1.816 5.306-4.223h1.194c.598 0 1.083-.473 1.083-1.055 0-.583-.485-1.056-1.083-1.056z"/>
    </g>
</svg>
