<svg xmlns="http://www.w3.org/2000/svg" width="40" height="48" viewBox="0 0 40 48">
    <g fill="#DF5A30" fill-rule="nonzero">
        <path d="M29 35.77H2V9.935h27c.552 0 1-.445 1-.994V6.955C30 3.12 26.86 0 23 0H7C3.14 0 0 3.12 0 6.955v33.782c0 3.835 3.14 6.955 7 6.955h16c3.86 0 7-3.12 7-6.955v-3.974a.997.997 0 0 0-1-.994zM2 6.954c0-2.738 2.242-4.968 5-4.968h16c2.758 0 5 2.23 5 4.968v.994H2v-.994zm26 33.782c0 2.738-2.242 4.968-5 4.968H7c-2.758 0-5-2.23-5-4.968v-2.98h26v2.98z"/>
        <path d="M17.436 3.846h-4.103c-.566 0-1.025.517-1.025 1.154 0 .637.46 1.154 1.025 1.154h4.103c.566 0 1.026-.517 1.026-1.154 0-.637-.46-1.154-1.026-1.154zM35.816 26.917l-3.044-.734-.127-.492a6.415 6.415 0 0 0 1.583-3.033c.542-.27.933-.783 1.014-1.4l.22-1.703a1.785 1.785 0 0 0-.453-1.43 1.98 1.98 0 0 0-.369-.313l.05-1.04.185-.178c.524-.536 1.231-1.682.112-3.334-.531-.786-1.627-1.722-3.82-1.722-.648 0-2.106 0-3.521.856-4.174.143-4.665 2.315-4.665 3.953 0 .324.061.929.118 1.434-.15.092-.288.205-.408.336a1.78 1.78 0 0 0-.458 1.438l.219 1.703c.083.639.503 1.167 1.121 1.428a6.42 6.42 0 0 0 1.499 2.921l-.148.576-3.044.734c-2.464.595-4.188 2.725-4.188 5.18 0 .261.106.512.296.694.191.182.449.286.718.286l20.28-.002c.56 0 1.014-.439 1.014-.98 0-2.453-1.724-4.583-4.184-5.178zm-15.948 4.2c.35-1.116 1.284-2.005 2.507-2.303l3.634-.877a1 1 0 0 0 .738-.713l.432-1.67a.955.955 0 0 0-.292-.951c-.789-.717-1.312-1.765-1.397-2.802-.043-.507-.493-.79-1.022-.79l-.262-1.558c.292 0 .568-.12.76-.33a.952.952 0 0 0 .246-.77c-.077-.592-.2-1.66-.2-2.005 0-1.015 0-1.972 2.964-2.002a1.04 1.04 0 0 0 .58-.182c.965-.667 2.077-.667 2.61-.667 1.048 0 1.742.272 2.123.834.412.609.244.781.13.9l-.44.425a.962.962 0 0 0-.296.645l-.108 2.13c-.012.266.02.452.21.646s.384.233.66.235l-.13 1.592c-.529 0-.967.392-1.01.9-.089 1.056-.65 2.15-1.466 2.857a.959.959 0 0 0-.306.966l.414 1.6c.091.35.373.626.738.712l3.636.877c1.221.296 2.154 1.185 2.503 2.303l-17.956-.002zM15 43.846A1.924 1.924 0 1 0 14.999 40 1.924 1.924 0 0 0 15 43.846z"/>
    </g>
</svg>
