<svg xmlns="http://www.w3.org/2000/svg" width="30" height="48" viewBox="0 0 30 48">
    <g fill="#DF5A30" fill-rule="evenodd">
        <path fill-rule="nonzero" d="M29 35.77H2V9.935h27c.552 0 1-.445 1-.994V6.955C30 3.12 26.86 0 23 0H7C3.14 0 0 3.12 0 6.955v33.782c0 3.835 3.14 6.955 7 6.955h16c3.86 0 7-3.12 7-6.955v-3.974a.997.997 0 0 0-1-.994zM2 6.954c0-2.738 2.242-4.968 5-4.968h16c2.758 0 5 2.23 5 4.968v.994H2v-.994zm26 33.782c0 2.738-2.242 4.968-5 4.968H7c-2.758 0-5-2.23-5-4.968v-2.98h26v2.98z"/>
        <path d="M28 9h2v28h-2z"/>
        <path fill-rule="nonzero" d="M17.436 3.846h-4.103c-.566 0-1.025.517-1.025 1.154 0 .637.46 1.154 1.025 1.154h4.103c.566 0 1.026-.517 1.026-1.154 0-.637-.46-1.154-1.026-1.154zM15 43.846A1.924 1.924 0 1 0 14.999 40 1.924 1.924 0 0 0 15 43.846z"/>
    </g>
</svg>
