<svg xmlns="http://www.w3.org/2000/svg" width="35" height="34" viewBox="0 0 35 34">
    <path fill="#566DA7" fill-rule="nonzero" stroke="#566DA7" stroke-width=".25" d="M33.284 15.502a2.4 2.4 0 0 0 .599-2.455 2.36 2.36 0 0 0-1.912-1.63l-7.99-1.175a1.045 1.045 0 0 1-.786-.579l-3.573-7.328A2.35 2.35 0 0 0 17.5 1a2.35 2.35 0 0 0-2.122 1.335l-3.573 7.328a1.046 1.046 0 0 1-.787.579l-7.99 1.175a2.358 2.358 0 0 0-1.91 1.63 2.4 2.4 0 0 0 .598 2.455l5.781 5.704c.247.243.36.594.302.936l-1.365 8.055a2.394 2.394 0 0 0 .941 2.342 2.324 2.324 0 0 0 2.493.182l7.146-3.802c.304-.162.668-.162.972 0l7.147 3.802c.349.186.727.278 1.103.278.488 0 .974-.154 1.39-.46a2.394 2.394 0 0 0 .94-2.342l-1.365-8.054a1.066 1.066 0 0 1 .302-.936l5.78-5.705zm-7.385 6.867l1.365 8.054c.069.405-.087.792-.416 1.034-.33.242-.74.271-1.1.081l-7.146-3.803a2.348 2.348 0 0 0-2.203 0l-7.146 3.803a1.02 1.02 0 0 1-1.1-.08 1.045 1.045 0 0 1-.416-1.035L9.1 22.369a2.413 2.413 0 0 0-.68-2.12l-5.782-5.704a1.045 1.045 0 0 1-.265-1.084c.126-.392.441-.661.844-.72l7.99-1.176a2.366 2.366 0 0 0 1.781-1.31l3.573-7.328c.18-.37.53-.59.937-.59.407 0 .758.22.938.59l3.573 7.328a2.364 2.364 0 0 0 1.781 1.31l7.99 1.175c.403.06.718.329.844.72.126.392.027.797-.264 1.085l-5.782 5.703a2.412 2.412 0 0 0-.68 2.121z"/>
</svg>
