<svg xmlns="http://www.w3.org/2000/svg" width="38" height="34" viewBox="0 0 38 34">
    <path fill="#566DA7" fill-rule="nonzero" d="M34.842 26.513l-6.05-2.952a1.622 1.622 0 0 1-.925-1.462v-2.09c.145-.173.297-.37.455-.588a14.024 14.024 0 0 0 1.87-3.585c.895-.4 1.475-1.262 1.475-2.236v-2.473c0-.595-.228-1.172-.634-1.622V6.216c.036-.34.175-2.363-1.325-4.033C28.408.734 26.297 0 23.433 0c-2.863 0-4.974.734-6.275 2.182-.909 1.012-1.214 2.152-1.307 2.97-1.085-.547-2.365-.825-3.818-.825-6.58 0-6.963 5.474-6.966 5.564v2.83c-.41.437-.634.94-.634 1.44v2.136c0 .667.306 1.289.83 1.71.523 1.922 1.808 3.375 2.309 3.885v1.695c0 .487-.272.933-.742 1.184l-4.214 2.58C1.003 28.21 0 29.859 0 31.653V34h38v-2.5c0-2.125-1.21-4.036-3.158-4.987zM8.867 31.38v1.384h-7.6v-1.111c0-1.342.75-2.574 1.989-3.235l4.213-2.58a2.553 2.553 0 0 0 1.369-2.25v-2.22l-.202-.184c-.016-.015-1.7-1.567-2.196-3.681l-.058-.245-.216-.136a.977.977 0 0 1-.466-.825v-2.135c0-.223.155-.487.425-.726l.208-.183V9.927c.01-.178.34-4.363 5.7-4.363 1.516 0 2.792.341 3.8 1.016v2.925a2.432 2.432 0 0 0-.633 1.622V13.6c0 .188.022.373.064.552.017.072.051.137.075.207.035.103.062.21.111.309l.002.003c.162.326.398.618.696.85l.01.034c.038.142.078.283.121.42l.052.162c.008.028.02.058.029.086.022.067.043.133.066.198.038.109.078.22.124.342.02.05.041.097.062.147.052.129.104.254.158.377l.038.091.035.078.05.103c.063.133.123.26.187.384l.03.062c.04.077.08.15.12.224a13.384 13.384 0 0 0 .562.951l.053.084c.154.232.287.42.397.566l.08.105.044.06v2.046c0 .598-.334 1.147-.872 1.434l-1.676.892-.292-.025-.119.244-3.563 1.897c-1.837.98-2.977 2.855-2.977 4.897zm27.866 1.384h-26.6V31.38c0-1.59.888-3.05 2.318-3.81l5.65-3.008a2.861 2.861 0 0 0 1.532-2.52v-2.485l-.123-.144-.024-.027c0-.002-.04-.049-.104-.13l-.012-.015a5.886 5.886 0 0 1-.118-.155l-.002-.003a11.222 11.222 0 0 1-.344-.495c-.004-.004-.006-.01-.01-.013a12.002 12.002 0 0 1-.656-1.126c-.081-.158-.162-.324-.24-.497-.01-.024-.022-.047-.033-.071-.035-.078-.07-.159-.105-.242l-.038-.093c-.033-.08-.067-.162-.102-.256a10.04 10.04 0 0 1-.184-.525l-.035-.11-.012-.037a9.49 9.49 0 0 1-.164-.6l-.058-.245-.216-.136a1.226 1.226 0 0 1-.586-1.037v-2.473c0-.347.15-.67.424-.912l.209-.183V5.963l-.017-.013c-.022-.446.006-1.814 1.028-2.952 1.05-1.17 2.84-1.762 5.322-1.762 2.474 0 4.26.588 5.311 1.749 1.234 1.36 1.03 3.101 1.028 3.116l-.005 3.93.209.185c.273.241.424.564.424.911V13.6c0 .54-.362 1.012-.9 1.174l-.316.095-.101.306a12.82 12.82 0 0 1-1.795 3.531c-.188.26-.371.491-.53.667l-.158.176v2.55c0 1.094.623 2.077 1.625 2.567l6.05 2.953c1.517.74 2.458 2.227 2.458 3.882v1.263z"/>
</svg>
