<svg xmlns="http://www.w3.org/2000/svg" width="32" height="33" viewBox="0 0 32 33">
    <g fill="#DF5A30" fill-rule="nonzero">
        <path d="M13.32 15.923a.61.61 0 0 0 .626-.02l6.77-4.376a.629.629 0 0 0 0-1.055l-6.77-4.375a.61.61 0 0 0-.627-.02.628.628 0 0 0-.319.548v8.75c0 .228.122.438.32.548zm.91-8.16L19.24 11l-5.008 3.237V7.763z"/>
        <path d="M0 0v33h32V0H0zm30.815 1.2V21H1.185V1.2h29.63zM1.185 31.8v-9.6h29.63v9.6H1.185z"/>
        <path d="M28.406 25.5h-14.25v-1c0-.276-.265-.5-.594-.5-.328 0-.593.224-.593.5v1h-2.375c-.329 0-.594.224-.594.5s.265.5.594.5h2.375v1c0 .276.265.5.594.5.328 0 .593-.224.593-.5v-1h14.25c.329 0 .594-.224.594-.5s-.265-.5-.594-.5zM4.5 24a.5.5 0 0 0-.5.5v3a.5.5 0 1 0 1 0v-3a.5.5 0 0 0-.5-.5zM7.5 24a.5.5 0 0 0-.5.5v3a.5.5 0 1 0 1 0v-3a.5.5 0 0 0-.5-.5z"/>
    </g>
</svg>
