<svg xmlns="http://www.w3.org/2000/svg" width="30" height="30" viewBox="0 0 30 30">
    <g fill="none" fill-rule="nonzero">
        <path fill="#4CAF50" d="M15.004 0h-.008C6.726 0 0 6.728 0 15c0 3.281 1.058 6.323 2.856 8.792l-1.87 5.572 5.766-1.843A14.87 14.87 0 0 0 15.004 30C23.274 30 30 23.27 30 15S23.274 0 15.004 0z"/>
        <path fill="#FAFAFA" d="M24.678 20.855c-.366.989-1.822 1.809-2.983 2.048-.794.162-1.831.29-5.323-1.092-4.467-1.767-7.343-6.1-7.567-6.381C8.59 15.148 7 13.135 7 11.052 7 8.97 8.108 7.956 8.554 7.521 8.921 7.163 9.527 7 10.108 7c.188 0 .357.01.51.016.446.018.67.044.964.717.367.843 1.26 2.926 1.366 3.14.109.214.217.504.065.785-.142.29-.268.42-.492.666-.224.247-.437.435-.661.7-.205.23-.437.477-.179.904.259.417 1.152 1.808 2.466 2.926 1.697 1.442 3.072 1.903 3.564 2.098.367.146.804.111 1.072-.161.34-.35.76-.93 1.187-1.502.304-.41.688-.46 1.09-.316.411.136 2.583 1.161 3.03 1.374.446.214.74.315.849.495.106.18.106 1.023-.26 2.013z"/>
    </g>
</svg>
